PathFileType	4	(X/Y/Z)	Patient4_TMGait_0pt4_02_left_11.trc.trc
DataRate	CameraRate	NumFrames	NumMarkers	Units	OrigDataRate	OrigDataStartFrame	OrigNumFrames
76.502732240437	76.502732240437	6	33	mm	76.502732240437	124	       141
Frame#	Time	Sacral			L.Shoulder			Chest			R.Shoulder			Neck			R.ASIS			L.ASIS			R.Thigh.Superior			R.Thigh.Lateral			R.Thigh.Inferior			R.Patella			L.Thigh.Superior			L.Thigh.Lateral			L.Thigh.Inferior			L.Patella			L.Shank.Superior			L.Shank.Lateral			L.Shank.Inferior			R.Shank.Superior			R.Shank.Lateral			R.Shank.Inferior			R.Heel			R.Midfoot.Superior			R.Midfoot.Lateral			R.Toe			L.Heel			L.Midfoot.Lateral			L.Midfoot.Superior			L.Toe			L.Elbow			L.Wrist			R.Elbow			R.Wrist			
		X1	Y1	Z1	X2	Y2	Z2	X3	Y3	Z3	X4	Y4	Z4	X5	Y5	Z5	X6	Y6	Z6	X7	Y7	Z7	X8	Y8	Z8	X9	Y9	Z9	X10	Y10	Z10	X11	Y11	Z11	X12	Y12	Z12	X13	Y13	Z13	X14	Y14	Z14	X15	Y15	Z15	X16	Y16	Z16	X17	Y17	Z17	X18	Y18	Z18	X19	Y19	Z19	X20	Y20	Z20	X21	Y21	Z21	X22	Y22	Z22	X23	Y23	Z23	X24	Y24	Z24	X25	Y25	Z25	X26	Y26	Z26	X27	Y27	Z27	X28	Y28	Z28	X29	Y29	Z29	X30	Y30	Z30	X31	Y31	Z31	X32	Y32	Z32	X33	Y33	Z33	

124	16.307785714286	847.860784761526	1008.953905087164	499.123813781615	1024.538133659091	1427.492839556000	296.940831248767	1145.320407823713	1353.316583349038	441.868776178068	1091.809809753631	1432.386281491767	624.897065136749	1039.540822786391	1488.887175239396	451.915727101653	1082.414323157424	933.402836780619	592.022396339078	1042.150346611087	954.940683009709	319.994080754136	1078.329377829447	722.646418265405	564.451032493980	979.598430173644	629.017220383900	633.190124030101	1036.692035549651	564.152946729942	550.430336223706	1019.232842451379	481.030478702250	556.785975120767	1111.536679216324	766.076165372915	343.340360449795	1047.980982891526	637.152067358420	276.081614768715	1153.223528845371	576.605570522015	330.348345017473	1174.688757770725	510.899072600186	329.210658011120	1155.605463783085	438.265851625510	321.307685907032	1080.650092250789	310.823136396762	277.612638620451	1165.791286214092	208.711297703948	329.262932685040	982.856303319814	396.428215386767	566.120493212613	903.481472772834	300.896455427499	632.289544544971	932.453449198498	202.240951285715	566.947149216511	786.139456722671	42.441691562648	538.707660104084	956.830244436783	95.727499239402	575.528298137415	868.493577498395	36.569148057338	614.503529769821	1076.768292546343	43.185216437641	605.274170715209	1074.209126541261	40.637114339580	376.057887812403	1143.708280166660	38.035015931900	292.020124640633	1223.044095049614	106.647964823060	310.023617069295	1351.761751797827	63.528364371585	276.547126752063	902.489578622437	1092.477746827802	200.766181278892	916.174659443989	832.970803090571	165.949050230006	1185.093056284482	1106.508391497216	747.860795933726	1419.569820430162	1130.489880260331	661.835288419167	
125	16.320857142857	848.998894960997	1008.076327076687	496.490967853683	1024.834865997653	1426.324210943956	293.533405406856	1145.664086918819	1352.944493949124	438.788977936858	1091.663841721005	1432.264611473232	621.589481857057	1039.451358847482	1488.211520834405	448.367948329645	1083.535302663255	932.891008063662	590.202577981442	1043.925573458996	953.853515330637	318.265101315423	1078.853982612217	721.742763378183	563.220742771608	979.089098447794	628.598466080038	631.668889623190	1035.911464897289	563.248886513285	549.303392993938	1017.826518002437	479.921777129920	555.503256533062	1113.208605614177	764.315553458591	342.241011586551	1048.210363082146	635.522726326427	276.165823517122	1153.308572213210	575.015474183041	330.743638875684	1173.519457077440	508.395191712384	330.381186542292	1153.923260815643	435.533243186455	322.339589564015	1077.330672793140	308.952571244806	278.948900971385	1160.546062851669	205.762132255411	331.317849209811	980.586494120585	395.699336829608	565.061336176241	900.404503015372	301.086942562573	631.668529139464	928.260388938629	201.970796338348	566.553798298955	780.897757458307	42.670152899585	538.836253939421	951.665380613781	95.711098832840	575.519030777131	863.285521315727	36.564269698112	614.542525797491	1071.584003729670	42.912308426448	605.325845771717	1065.796833099354	39.831633736810	378.091219442229	1135.104005282914	36.859094742543	293.795374843358	1216.091893740674	103.292056624241	312.802509346899	1344.143226094257	57.483394848398	278.547272115713	904.194981064064	1090.700985207597	197.621866570964	920.877999975634	831.253445240831	162.731574447326	1184.628137676952	1105.610172094103	744.001834360583	1419.186988221194	1124.478260096741	656.064940399883	
126	16.333928571429	850.137293164638	1007.339405976345	493.821365758736	1025.228338041940	1425.267222043105	289.999875686484	1146.065110458703	1352.709006533685	435.618884798953	1091.561170654332	1432.339093219028	618.167299995519	1039.461010286781	1487.695283320493	444.647224839714	1084.704770804667	932.519348851922	588.232636958331	1045.651157569073	953.025058398138	316.419306070073	1079.701384813508	720.979560117393	561.883034040574	978.972343610946	628.240971532179	630.007247473931	1035.597617914702	562.396711359240	548.057960607617	1016.951146540422	478.786437596913	554.139157134043	1114.855199909652	762.795724159710	341.187558283566	1048.807120751176	634.367905327393	275.886537749569	1153.567033449534	573.792134105594	331.085838169401	1172.518435345221	506.302143105119	331.359693270042	1152.519147230387	433.277573355099	323.049466194601	1074.644461823072	307.521414232383	279.587970959907	1155.845750967258	203.337315769376	332.859800131452	978.718122781136	394.991924101147	563.933787880668	897.610644721376	301.415827490285	630.978564269261	924.271164429915	201.788148922472	566.161611672248	775.683387317008	43.126425295293	539.010902828018	946.605045662943	95.734918416717	575.547310442574	858.128455621289	36.635344519908	614.597390799177	1066.463290244711	42.551279760317	605.391468905042	1058.165512316264	39.178921748968	379.414597927680	1127.388107823789	36.061076503583	294.956688915211	1209.675122153720	100.696518194754	314.983801620934	1337.230112807267	52.726464264682	280.143473897531	906.263640851546	1088.959908181611	194.297678261825	926.180845587625	829.603959210517	159.310461520056	1183.680556019317	1104.833821749509	740.399760789092	1418.325086460356	1117.375666801927	650.551519684577	
127	16.347000000000	851.247808458314	1006.805464626407	491.142170291089	1025.706136702843	1424.391990473320	286.395870364851	1146.522064934394	1352.633751177863	432.383822314914	1091.552003835525	1432.637057673701	614.663466809867	1039.584501600647	1487.382520377265	440.812117180687	1085.879785856374	932.330577632337	586.084249309859	1047.246680968464	952.514017281003	314.400088965423	1080.794866256900	720.410376314296	560.390086001983	979.244614314547	627.981245644974	628.208895368904	1035.765428887056	561.644709690377	546.687460654669	1016.662461555560	477.644441503177	552.738634771933	1116.444997424277	761.675498008950	340.126744183842	1049.794372169713	633.747858053506	275.208635379835	1154.023406159379	572.997009030446	331.242229074450	1171.735435719079	504.690833089384	332.002243514965	1151.420747005596	431.546881607205	323.377388533357	1072.584342733685	306.570339447896	279.536256118973	1151.708966417155	201.491409780648	333.870074221841	977.291648318689	394.334360039564	562.769416799267	895.116948087993	301.923204724258	630.226947231269	920.519208534116	201.733989775758	565.787497087236	770.509720326130	43.896299588612	539.229468702437	941.678533582238	95.814553835692	575.622141698543	853.031901721708	36.828150566315	614.670629565596	1061.409599137029	42.107079969847	605.469999258821	1051.381962246654	38.713383871941	380.112983472767	1120.602004788161	35.604545080901	295.575732993961	1203.827386771130	98.878032249089	316.527324862679	1331.048926357636	49.284630960787	281.293569403899	908.699526516734	1087.336248199694	190.812953131092	932.059125258469	828.113122105036	155.718971681576	1182.289868061289	1104.206719457704	737.027568527767	1416.956728529472	1109.135974151950	645.349600813619	
128	16.360071428571	852.310711124765	1006.512503519731	488.452697002739	1026.241671817344	1423.756478157168	282.774776199581	1147.025199026264	1352.734289498103	429.106728367160	1091.664913760085	1433.162527280176	611.112439908578	1039.817557652835	1487.299134755324	436.928278234857	1087.024157202789	932.354990192015	583.734172688760	1048.669665831726	952.343370757061	312.153228833569	1082.054650110888	720.080175650445	558.700531755773	979.903194787592	627.847521588371	626.285477051715	1036.435587402250	561.038709026693	545.192488171534	1017.025623139576	476.511227788383	551.362512602292	1117.967783968043	761.054937795652	338.986281965082	1051.137203687830	633.647070387890	274.136663577850	1154.660376946730	572.610551500924	331.091937741351	1171.170819133265	503.549446894112	332.214097628990	1150.594719731239	430.310112827668	323.312619187524	1071.040084227215	306.070616548820	278.884105375427	1148.057719782790	200.196998724036	334.392759967429	976.354736562228	393.749424435850	561.606364737442	892.947990464913	302.646802917209	629.424831465001	917.042876056479	201.849112626662	565.449563053872	765.397577821235	45.072563874369	539.485584087877	936.916583390159	95.965789064554	575.749361265844	848.005313925074	37.199016853352	614.763077218279	1056.419249708267	41.591622934680	605.558366432352	1045.374537990198	38.436119945737	380.314444145347	1114.645705216112	35.421310163749	295.762498532847	1198.482759967913	97.760988954573	317.472011738069	1325.511319847103	47.031647471224	282.012568008861	911.484731887037	1085.902287329364	187.183995396161	938.497024860771	826.868311885785	151.986923299792	1180.495542852503	1103.740258419300	733.846017035888	1415.030699187017	1099.740902845595	640.522283788967	
129	16.373142857143	853.311964391501	1006.470832782405	485.724075962832	1026.800097499052	1423.399250359345	279.178934800773	1147.557159811286	1353.018431347605	425.806295788964	1091.897331304767	1433.896081394310	607.546461080197	1040.138373862899	1487.450525788524	433.057853688072	1088.109784086048	932.605657939129	581.168513719363	1049.919623451421	952.499315230304	309.640491967284	1083.418876178877	720.019286193518	556.785938767847	980.957051689857	627.854024206365	624.253207957571	1037.643348101687	560.615547421823	543.577765816536	1018.117803471976	475.395014975629	550.075077746410	1119.427314168876	760.950486083334	337.678629184224	1052.721084072331	633.973474873573	272.714297985186	1155.407798057071	572.539244576613	330.544738131850	1170.772416539839	502.801075709421	331.968056527852	1149.953803249685	429.478479607062	322.891633762345	1069.835331354981	305.939115031231	277.779195286395	1144.754990081522	199.366788578269	334.518433284644	975.966608529313	393.251869877065	560.481685860272	891.142680121969	303.621164919969	628.583457002377	913.887715019787	202.172617857497	565.163534436930	760.377103470627	46.752313519633	539.769032341379	932.350918805511	96.204722016948	575.930122764797	843.058855780447	37.814629458223	614.872951609843	1051.480188719256	41.023204264665	605.651362400718	1039.983988500796	38.322734085030	380.164082602629	1109.333610602584	35.429932578195	295.642782953448	1193.516770094867	97.209467845200	317.915875954491	1320.461725612212	45.741903869707	282.360441068110	914.578223416342	1084.713213925319	183.421903272247	945.486260241475	825.947533300349	148.138998764468	1178.331828041804	1103.426669997914	730.805385827911	1412.467950926987	1089.203751974236	636.140403523736	
